<svg xmlns="http://www.w3.org/2000/svg" version="1.1" xmlns:xlink="http://www.w3.org/1999/xlink" xmlns:svgjs="http://svgjs.dev/svgjs" width="100%" height="100%" viewBox="0 0 1000 600"><rect width="1000" height="600" x="0" y="0" fill="#013dc4"/><g><circle r="166.66666666666666" cx="429.71378580729163" cy="451.9359307271882" fill="#f9be4a" transform="matrix(0.47520008640847083,0,0,0.47520008640847083,0,85.23998351670922)"/><path d="M383.6823830330074 376.93593804994384L429.0654857982506 506.1304331946362L430.3621458772576 506.1304331946362L475.9810050205021 376.93593804994384L495.2835584693555 376.93593804994384L440.32285284781096 526.9359335532478L419.10477882769726 526.9359335532478L364.1440732061527 376.93593804994384L383.6823830330074 376.93593804994384Z " fill="#533549" transform="matrix(0.47520008640847083,0,0,0.47520008640847083,0,85.23998351670922)"/><path d="M694.7455615258069 378.56834495840826L729.6609163041647 477.96374453523975L730.6584978692607 477.96374453523975L765.7552311139996 378.56834495840826L780.6055930489505 378.56834495840826L738.3217380738613 493.97039419337005L721.9976760995642 493.97039419337005L679.713821124475 378.56834495840826L694.7455615258069 378.56834495840826ZM794.481045727103 411.53388122316943L807.8577076227076 411.53388122316943L807.8577076227076 493.97039419337005L794.481045727103 493.97039419337005L794.481045727103 411.53388122316943ZM793.5061364703047 392.91991611081113L793.5061364703047 376.9359387609785L808.6739107214224 376.9359387609785L808.6739107214224 392.91991611081113L793.5061364703047 392.91991611081113ZM834.3162914060476 457.082548593118L834.4749975641311 446.78932062599176L889.9768082767414 446.78932062599176Q889.818102118658 434.07015567101854 884.0139911944634 427.5405308812997Q878.2098802702689 421.0109060915808 866.4656245720939 421.0109060915808L866.4656245720939 421.0109060915808Q853.4063749926562 421.0109060915808 847.3755409854854 428.92354168745544Q841.3220346700168 436.83617728333 841.3220346700168 452.34403615891233L841.3220346700168 452.34403615891233Q841.3220346700168 468.1693073506615 847.2848517522948 476.26332141291715Q853.2476688345728 484.3346631668752 867.5992399869757 484.3346631668752L867.5992399869757 484.3346631668752Q877.2349710134705 484.3346631668752 881.6560711315093 481.2285569300992Q886.0544989412505 478.14512300162085 887.6869051386802 472.9078197848672L887.6869051386802 472.9078197848672L901.8797701329996 472.9078197848672Q900.24736393557 479.43744457458604 896.0076422839122 484.5840585581492Q891.7679206322546 489.7306725417123 884.8301942931782 492.6554003121072Q877.8924679541019 495.60280039079976 867.5992399869757 495.60280039079976L867.5992399869757 495.60280039079976Q848.010365617819 495.60280039079976 837.9892053502645 484.3346631668752Q827.9453727744122 473.06652594295065 827.9453727744122 452.66144847507917L827.9453727744122 452.66144847507917Q827.9453727744122 431.93895869104085 837.9892053502645 420.8295276251997Q848.010365617819 409.74276886765625 866.4656245720939 409.74276886765625L866.4656245720939 409.74276886765625Q876.5774740728391 409.74276886765625 884.9208835263688 413.982490519314Q893.2416206716008 418.2222121709717 898.2975454219734 427.5405308812997Q903.353470172346 436.83617728333 903.353470172346 452.50274231699575L903.353470172346 452.50274231699575L903.353470172346 457.082548593118L834.3162914060476 457.082548593118ZM957.5629593119911 495.60280039079976L957.5629593119911 495.60280039079976Q937.6340003183699 495.60280039079976 927.8395631337918 484.4253524000657Q918.0451259492135 473.2479044093317 918.0451259492135 452.66144847507917L918.0451259492135 452.66144847507917Q918.0451259492135 432.09766484912427 928.1796477582562 420.9202168583903Q938.2914972590014 409.74276886765625 957.2228746875265 409.74276886765625L957.2228746875265 409.74276886765625Q966.8586057140213 409.74276886765625 974.2044336024552 413.0755981874086Q981.5502614908888 416.43109981545854 986.1300677670112 422.303227664546Q990.6872017348356 428.17535551363346 991.662110991634 436.01997418461514L991.662110991634 436.01997418461514L978.126742937946 436.01997418461514Q977.1518336811477 429.64905555297975 972.4813381718349 425.50002313451256Q967.8335149708197 421.3283184077477 957.3815808456101 421.3283184077477L957.3815808456101 421.3283184077477Q943.5061281674574 421.3283184077477 937.4752941602866 429.58103862808684Q931.4444601531156 437.8110865401283 931.4444601531156 452.66144847507917L931.4444601531156 452.66144847507917Q931.4444601531156 467.5344827183277 937.4752941602866 475.76453063036917Q943.5061281674574 484.0172508507083 957.3815808456101 484.0172508507083L957.3815808456101 484.0172508507083Q967.3573964965693 484.0172508507083 972.2546150888585 480.50304306457485Q977.1518336811477 476.98883527844146 978.126742937946 469.9830920144723L978.126742937946 469.9830920144723L992.0021956160986 469.9830920144723Q991.0272863593003 477.14754143652493 986.8555816325355 482.95165236071944Q982.6838769057705 488.755763284914 975.270032092444 492.1792818378569Q967.8335149708197 495.60280039079976 957.5629593119911 495.60280039079976ZM1069.3827838359266 493.97039419337005L1069.3827838359266 376.9359387609785L1082.7594457315313 376.9359387609785L1082.7594457315313 493.97039419337005L1069.3827838359266 493.97039419337005ZM1041.7905846377048 495.60280039079976L1041.7905846377048 495.60280039079976Q1024.96773188086 495.60280039079976 1015.6720854788294 484.6747477913397Q1006.3537667685015 473.72402288358205 1006.3537667685015 452.84282694146026L1006.3537667685015 452.84282694146026Q1006.3537667685015 438.4685834807597 1010.6161607284569 428.92354168745544Q1014.8558823801146 419.3784998941511 1022.8592072091798 414.54929822675484Q1030.8398597299472 409.74276886765625 1041.7905846377048 409.74276886765625L1041.7905846377048 409.74276886765625Q1052.8773433952483 409.74276886765625 1060.1551543587893 415.20679516738625Q1067.4102930140325 420.6708214671163 1070.8338115669753 430.30655249361115Q1074.2800024282155 439.942283520106 1074.2800024282155 452.84282694146026L1074.2800024282155 452.84282694146026Q1074.2800024282155 465.5619918964335 1070.8338115669753 475.1977229229283Q1067.4102930140325 484.8334539494232 1060.1551543587893 490.20679101596266Q1052.8773433952483 495.60280039079976 1041.7905846377048 495.60280039079976ZM1045.2141031906476 484.1759570087917L1045.2141031906476 484.1759570087917Q1057.6158558294542 484.1759570087917 1063.4879836785415 476.01392602164316Q1069.3827838359266 467.8518950344946 1069.3827838359266 452.84282694146026L1069.3827838359266 452.84282694146026Q1069.3827838359266 437.65238038204484 1063.4879836785415 429.49034939489627Q1057.6158558294542 421.3283184077477 1045.2141031906476 421.3283184077477L1045.2141031906476 421.3283184077477Q1032.15485361121 421.3283184077477 1025.942641137658 429.49034939489627Q1019.7531009724038 437.65238038204484 1019.7531009724038 452.84282694146026L1019.7531009724038 452.84282694146026Q1019.7531009724038 467.8518950344946 1025.942641137658 476.01392602164316Q1032.15485361121 484.1759570087917 1045.2141031906476 484.1759570087917ZM1180.5451114192306 482.3848446532786L1180.5451114192306 493.97039419337005L1171.7255834914508 493.97039419337005Q1165.6947494842798 493.97039419337005 1162.4299370894205 489.88937869979577Q1159.1651246945607 485.80836320622143 1158.9837462281798 476.51271680419114L1158.9837462281798 476.51271680419114L1160.7975308919906 476.98883527844146Q1157.6914246552146 485.4909508900546 1150.594992158055 490.5468756404272Q1143.4758873525975 495.60280039079976 1131.5729254963394 495.60280039079976L1131.5729254963394 495.60280039079976Q1122.4359852523921 495.60280039079976 1115.9743773875664 492.8367787784883Q1109.535441831038 490.0480848578792 1106.1799402029883 484.4933693249586Q1102.8471108832357 478.9613261003357 1102.8471108832357 470.4592104887226L1102.8471108832357 470.4592104887226Q1102.8471108832357 463.7708795409203 1105.2957201793802 459.12305633990513Q1107.7443294755249 454.47523313888996 1112.0520680520754 451.61852229338797Q1116.3824789369237 448.761811447886 1122.0959006279277 447.3561283334326Q1127.8093223189317 445.9731175272769 1134.1802409505672 445.9731175272769L1134.1802409505672 445.9731175272769L1159.1651246945607 445.9731175272769L1159.1651246945607 438.1511711645928Q1159.1651246945607 429.49034939489627 1154.494629185248 425.25062774323857Q1149.846805984233 421.0109060915808 1139.3948718590232 421.0109060915808L1139.3948718590232 421.0109060915808Q1130.0992254569928 421.0109060915808 1125.3607130227874 424.4344246445237Q1120.6222005885816 427.85794319746657 1119.6472913317834 434.54627414526885L1119.6472913317834 434.54627414526885L1106.1119232780952 434.54627414526885Q1106.92812637681 426.54294931620376 1111.1678480284677 421.0789230164737Q1115.4075696801256 415.6148967167437 1122.7533975685592 412.66749663805115Q1130.0992254569928 409.74276886765625 1139.8936626415712 409.74276886765625L1139.8936626415712 409.74276886765625Q1146.2645812732067 409.74276886765625 1152.1367091222942 411.21646890700254Q1158.0088369713817 412.66749663805115 1162.588643247504 416.11368749929164Q1167.1457772153285 419.5372060522345 1169.843781902747 425.25062774323857Q1172.5417865901654 430.96404943424255 1172.5417865901654 439.443492737558L1172.5417865901654 439.443492737558L1172.5417865901654 482.3848446532786L1180.5451114192306 482.3848446532786ZM1116.065066620757 470.4592104887226L1116.065066620757 470.4592104887226Q1116.065066620757 477.48762606098944 1120.3047882724145 480.9111446139323Q1124.5445099240724 484.3346631668752 1133.205331693769 484.3346631668752L1133.205331693769 484.3346631668752Q1145.2896720164085 484.3346631668752 1152.2273983554846 478.6212414758712Q1159.1651246945607 472.9078197848672 1159.1651246945607 463.4534672247534L1159.1651246945607 463.4534672247534L1159.1651246945607 456.42505165248656L1134.3389471086507 456.42505165248656Q1125.5194191808705 456.42505165248656 1120.8715959798556 460.0072763635129Q1116.2237727788402 463.6121733828369 1116.065066620757 470.4592104887226ZM1251.3960748493398 460.0072763635129L1251.3960748493398 411.53388122316943L1264.7727367449445 411.53388122316943L1264.7727367449445 493.97039419337005L1251.3960748493398 493.97039419337005L1251.3960748493398 481.40993539648025Q1247.473765513849 487.5994755617346 1241.6696545896543 491.612474130416Q1235.8882159737577 495.60280039079976 1225.912400322798 495.60280039079976L1225.912400322798 495.60280039079976Q1212.3770322691103 495.60280039079976 1204.5324135981284 488.007577111092Q1196.7104672354444 480.41235383138434 1196.7104672354444 462.9546764422054L1196.7104672354444 462.9546764422054L1196.7104672354444 411.53388122316943L1210.087129131049 411.53388122316943L1209.9284229729656 462.4558856596575Q1209.9284229729656 474.22281366613004 1214.984347723338 479.12003225841914Q1220.0402724737107 484.0172508507083 1229.3585911840387 484.0172508507083L1229.3585911840387 484.0172508507083Q1236.046922131841 484.0172508507083 1240.9441407241302 481.5686415545637Q1245.8413593164194 479.12003225841914 1248.607380928731 473.81471211677257Q1251.3960748493398 468.509391975126 1251.3960748493398 460.0072763635129L1251.3960748493398 460.0072763635129ZM1356.346189959092 411.53388122316943L1324.672975267296 493.97039419337005L1310.6388164310597 493.97039419337005L1279.146980205645 411.53388122316943L1293.0224328837976 411.53388122316943L1317.1684412207787 479.77752919905055L1318.1433504775773 479.77752919905055L1342.4707372809394 411.53388122316943L1356.346189959092 411.53388122316943ZM1370.3803487953278 411.53388122316943L1383.7796829992303 411.53388122316943L1383.7796829992303 493.97039419337005L1370.3803487953278 493.97039419337005L1370.3803487953278 411.53388122316943ZM1369.4054395385297 392.91991611081113L1369.4054395385297 376.9359387609785L1384.595886097945 376.9359387609785L1384.595886097945 392.91991611081113L1369.4054395385297 392.91991611081113ZM1410.2155944742726 457.082548593118L1410.3743006323557 446.78932062599176L1465.8761113449664 446.78932062599176Q1465.7174051868828 434.07015567101854 1459.9359665709858 427.5405308812997Q1454.1318556467913 421.0109060915808 1442.3875999486163 421.0109060915808L1442.3875999486163 421.0109060915808Q1429.3283503691787 421.0109060915808 1423.2748440537102 428.92354168745544Q1417.2440100465392 436.83617728333 1417.2440100465392 452.34403615891233L1417.2440100465392 452.34403615891233Q1417.2440100465392 468.1693073506615 1423.2068271288172 476.26332141291715Q1429.1469719027978 484.3346631668752 1443.521215363498 484.3346631668752L1443.521215363498 484.3346631668752Q1453.1569463899928 484.3346631668752 1457.5553741997342 481.2285569300992Q1461.976474317773 478.14512300162085 1463.6088805152026 472.9078197848672L1463.6088805152026 472.9078197848672L1477.8017455095223 472.9078197848672Q1476.1693393120927 479.43744457458604 1471.9296176604348 484.5840585581492Q1467.689896008777 489.7306725417123 1460.7521696697008 492.6554003121072Q1453.8144433306243 495.60280039079976 1443.521215363498 495.60280039079976L1443.521215363498 495.60280039079976Q1423.9323409943418 495.60280039079976 1413.8885084184894 484.3346631668752Q1403.8446758426371 473.06652594295065 1403.8446758426371 452.66144847507917L1403.8446758426371 452.66144847507917Q1403.8446758426371 431.93895869104085 1413.8885084184894 420.8295276251997Q1423.9323409943418 409.74276886765625 1442.3875999486163 409.74276886765625L1442.3875999486163 409.74276886765625Q1452.4994494493617 409.74276886765625 1460.8201865945935 413.982490519314Q1469.1409237398257 418.2222121709717 1474.219520798496 427.5405308812997Q1479.2754455488684 436.83617728333 1479.2754455488684 452.50274231699575L1479.2754455488684 452.50274231699575L1479.2754455488684 457.082548593118L1410.2155944742726 457.082548593118ZM1533.462262380216 495.60280039079976L1533.462262380216 495.60280039079976Q1513.5559756948924 495.60280039079976 1503.7615385103145 484.4253524000657Q1493.9671013257357 473.2479044093317 1493.9671013257357 452.66144847507917L1493.9671013257357 452.66144847507917Q1493.9671013257357 432.09766484912427 1504.078950826481 420.9202168583903Q1514.2134726355239 409.74276886765625 1533.144850064049 409.74276886765625L1533.144850064049 409.74276886765625Q1542.7805810905438 409.74276886765625 1550.1264089789775 413.0755981874086Q1557.4722368674115 416.43109981545854 1562.029370835236 422.303227664546Q1566.6091771113583 428.17535551363346 1567.5840863681565 436.01997418461514L1567.5840863681565 436.01997418461514L1554.0260460061709 436.01997418461514Q1553.0511367493723 429.64905555297975 1548.4033135483573 425.50002313451256Q1543.7554903473424 421.3283184077477 1533.3035562221326 421.3283184077477L1533.3035562221326 421.3283184077477Q1519.42810354398 421.3283184077477 1513.3972695368093 429.58103862808684Q1507.3437632213404 437.8110865401283 1507.3437632213404 452.66144847507917L1507.3437632213404 452.66144847507917Q1507.3437632213404 467.5344827183277 1513.3972695368093 475.76453063036917Q1519.42810354398 484.0172508507083 1533.3035562221326 484.0172508507083L1533.3035562221326 484.0172508507083Q1543.2566995647944 484.0172508507083 1548.1539181570834 480.50304306457485Q1553.0511367493723 476.98883527844146 1554.0260460061709 469.9830920144723L1554.0260460061709 469.9830920144723L1567.9014986843235 469.9830920144723Q1566.926589427525 477.14754143652493 1562.777557009058 482.95165236071944Q1558.6058522822932 488.755763284914 1551.169335160669 492.1792818378569Q1543.7554903473424 495.60280039079976 1533.462262380216 495.60280039079976ZM1645.2820869041516 493.97039419337005L1645.2820869041516 376.9359387609785L1658.6814211080537 376.9359387609785L1658.6814211080537 493.97039419337005L1645.2820869041516 493.97039419337005ZM1617.6898877059298 495.60280039079976L1617.6898877059298 495.60280039079976Q1600.8897072573823 495.60280039079976 1591.571388547054 484.6747477913397Q1582.2757421450242 473.72402288358205 1582.2757421450242 452.84282694146026L1582.2757421450242 452.84282694146026Q1582.2757421450242 438.4685834807597 1586.5154637966816 428.92354168745544Q1590.7551854483395 419.3784998941511 1598.7585102774046 414.54929822675484Q1606.7618351064698 409.74276886765625 1617.6898877059298 409.74276886765625L1617.6898877059298 409.74276886765625Q1628.7993187717711 409.74276886765625 1636.0544574270139 415.20679516738625Q1643.3322683905549 420.6708214671163 1646.7557869434977 430.30655249361115Q1650.1793054964405 439.942283520106 1650.1793054964405 452.84282694146026L1650.1793054964405 452.84282694146026Q1650.1793054964405 465.5619918964335 1646.7557869434977 475.1977229229283Q1643.3322683905549 484.8334539494232 1636.0544574270139 490.20679101596266Q1628.7993187717711 495.60280039079976 1617.6898877059298 495.60280039079976ZM1621.1360785671704 484.1759570087917L1621.1360785671704 484.1759570087917Q1633.5378312059765 484.1759570087917 1639.409959055064 476.01392602164316Q1645.2820869041516 467.8518950344946 1645.2820869041516 452.84282694146026L1645.2820869041516 452.84282694146026Q1645.2820869041516 437.65238038204484 1639.409959055064 429.49034939489627Q1633.5378312059765 421.3283184077477 1621.1360785671704 421.3283184077477L1621.1360785671704 421.3283184077477Q1608.0768289877324 421.3283184077477 1601.8646165141804 429.49034939489627Q1595.6524040406284 437.65238038204484 1595.6524040406284 452.84282694146026L1595.6524040406284 452.84282694146026Q1595.6524040406284 467.8518950344946 1601.8646165141804 476.01392602164316Q1608.0768289877324 484.1759570087917 1621.1360785671704 484.1759570087917ZM1756.4444144874556 482.3848446532786L1756.4444144874556 493.97039419337005L1747.6475588679732 493.97039419337005Q1741.5940525525043 493.97039419337005 1738.329240157645 489.88937869979577Q1735.0644277627857 485.80836320622143 1734.9057216047022 476.51271680419114L1734.9057216047022 476.51271680419114L1736.6968339602154 476.98883527844146Q1733.5907277234396 485.4909508900546 1726.4942952262795 490.5468756404272Q1719.3978627291199 495.60280039079976 1707.472228564564 495.60280039079976L1707.472228564564 495.60280039079976Q1698.335288320617 495.60280039079976 1691.896352764089 492.8367787784883Q1685.434744899263 490.0480848578792 1682.1019155795107 484.4933693249586Q1678.7464139514605 478.9613261003357 1678.7464139514605 470.4592104887226L1678.7464139514605 470.4592104887226Q1678.7464139514605 463.7708795409203 1681.1950232476051 459.12305633990513Q1683.6436325437498 454.47523313888996 1687.9740434285982 451.61852229338797Q1692.3044543134465 448.761811447886 1698.0178760044505 447.3561283334326Q1703.7312976954545 445.9731175272769 1710.1022163270895 445.9731175272769L1710.1022163270895 445.9731175272769L1735.0644277627857 445.9731175272769L1735.0644277627857 438.1511711645928Q1735.0644277627857 429.49034939489627 1730.4166045617708 425.25062774323857Q1725.7687813607554 421.0109060915808 1715.3168472355455 421.0109060915808L1715.3168472355455 421.0109060915808Q1706.0212008335156 421.0109060915808 1701.2826883993098 424.4344246445237Q1696.544175965104 427.85794319746657 1695.5692667083058 434.54627414526885L1695.5692667083058 434.54627414526885L1682.0112263463202 434.54627414526885Q1682.8274294450348 426.54294931620376 1687.0671510966927 421.0789230164737Q1691.329545056648 415.6148967167437 1698.6753729450816 412.66749663805115Q1706.0212008335156 409.74276886765625 1715.815638018094 409.74276886765625L1715.815638018094 409.74276886765625Q1722.1638843414316 409.74276886765625 1728.0586844988165 411.21646890700254Q1733.930812347904 412.66749663805115 1738.4879463157285 416.11368749929164Q1743.0677525918509 419.5372060522345 1745.765757279269 425.25062774323857Q1748.4637619666878 430.96404943424255 1748.4637619666878 439.443492737558L1748.4637619666878 439.443492737558L1748.4637619666878 482.3848446532786L1756.4444144874556 482.3848446532786ZM1691.964369688982 470.4592104887226L1691.964369688982 470.4592104887226Q1691.964369688982 477.48762606098944 1696.2267636489373 480.9111446139323Q1700.4664853005947 484.3346631668752 1709.1046347619936 484.3346631668752L1709.1046347619936 484.3346631668752Q1721.188975084633 484.3346631668752 1728.1267014237096 478.6212414758712Q1735.0644277627857 472.9078197848672 1735.0644277627857 463.4534672247534L1735.0644277627857 463.4534672247534L1735.0644277627857 456.42505165248656L1710.260922485173 456.42505165248656Q1701.4413945573933 456.42505165248656 1696.793571356378 460.0072763635129Q1692.145748155363 463.6121733828369 1691.964369688982 470.4592104887226ZM1801.5169633831538 503.6061252198649L1827.635462542029 411.53388122316943L1841.3295367538008 411.53388122316943L1812.9438067651618 507.02964377280773Q1809.678994370302 518.2977809967323 1803.2173865054765 522.6281918815806Q1796.778450948948 526.9359304581312 1786.9840137643696 526.9359304581312L1786.9840137643696 526.9359304581312L1774.5822611255635 526.9359304581312L1774.5822611255635 515.3503809180397L1786.167810665655 515.3503809180397Q1792.697435455374 515.3503809180397 1796.1209540083169 512.9017716218953Q1799.5444725612592 510.45316232575067 1801.5169633831538 503.6061252198649L1801.5169633831538 503.6061252198649ZM1763.1554177435555 411.53388122316943L1777.0308704217082 411.53388122316943L1795.8035416921498 469.4843012319243Q1797.594654047663 474.5402259822969 1798.7282694625446 477.23823066971545Q1799.8845571857241 479.936235357134 1801.2675679918798 480.8204553807418Q1802.6505787980354 481.7273477126472 1804.9404819360966 481.7273477126472L1804.9404819360966 481.7273477126472L1814.3948344962105 481.7273477126472L1814.3948344962105 493.65298187720316L1803.4667818967505 493.65298187720316Q1797.9120663638296 493.65298187720316 1794.5792370440772 492.0205756797734Q1791.2237354160275 490.3881694823437 1788.7751261198828 485.9670693643049Q1786.3265168237385 481.5686415545637 1783.5604952114268 473.40661056741516L1783.5604952114268 473.40661056741516L1763.1554177435555 411.53388122316943Z " fill="#e2d3f4" transform="matrix(0.47520008640847083,0,0,0.47520008640847083,0,85.23998351670922)"/></g></svg>